<svg xmlns="http://www.w3.org/2000/svg" xmlns:xlink="http://www.w3.org/1999/xlink" width="659.941" height="352.688" viewBox="0 0 659.941 352.688"><path fill="#e6e6e6" d="M283.26243,41.81055h-19.12891c-3.41455,0-6.19287-2.77832-6.19287-6.19287V6.19287c0-3.41455,2.77832-6.19287,6.19287-6.19287h19.12891c3.41455,0,6.19287,2.77832,6.19287,6.19287v29.4248c0,3.41455-2.77832,6.19287-6.19287,6.19287Z"/><path fill="#ccc" d="M325.13255,41.81055h-19.12939c-3.41455,0-6.19287-2.77832-6.19287-6.19287V6.19287c0-3.41455,2.77832-6.19287,6.19287-6.19287h19.12939c3.41455,0,6.19287,2.77832,6.19287,6.19287v29.4248c0,3.41455-2.77832,6.19287-6.19287,6.19287Z"/><path fill="#e6e6e6" d="M369.74778,41.81055h-19.12891c-3.41455,0-6.19287-2.77832-6.19287-6.19287V6.19287c0-3.41455,2.77832-6.19287,6.19287-6.19287h19.12891c3.41455,0,6.19287,2.77832,6.19287,6.19287v29.4248c0,3.41455-2.77832,6.19287-6.19287,6.19287Z"/><path id="uuid-4d2d9b01-4014-4a15-9fb7-c70aeb2aff54-287" fill="#a0616a" d="M160.48646,137.30461c3.31476-3.37331,7.74218-4.39732,9.88862-2.28744,2.14645,2.10988,1.19897,6.55405-2.11742,9.92811-1.30628,1.36597-2.92068,2.39926-4.70815,3.01339l-14.22526,14.11547-6.48169-6.81669,14.71174-13.19163c.58312-1.79847,1.58855-3.4311,2.93215-4.76121Z"/><path fill="#3f3d56" d="M114.99227,125.65307l14.91486,33.08772,23.81675-12.8919,8.52358,4.52378s-19.46968,32.54975-32.80056,28.84439c-13.33088-3.70537-37.00308-37.30309-32.73793-47.67236,4.26514-10.36927,18.2833-5.89163,18.2833-5.89163Z"/><polyline fill="#e6e6e6" points="530.941 14.811 566.148 14.811 579.941 24.811 543.98 26.811 530.941 14.811"/><path fill="#3f3d56" d="M0,346.99941c0,.66003,.53003,1.19,1.19006,1.19H595.48004c.65997,0,1.19-.52997,1.19-1.19,0-.65997-.53003-1.19-1.19-1.19H1.19006c-.66003,0-1.19006,.53003-1.19006,1.19Z"/><path fill="#3f3d56" d="M602.09852,93.83746l13.85543,6.56339c-5.68289-7.93086-10.5797-20.31709-13.2013-30.17328-4.43872,9.18109-11.59408,20.41482-18.6768,27.12515l14.64366-3.76722c-9.02334,44.22323-42.96249,75.97114-81.82754,75.97115l-.55017,1.59735c40.59555-.00001,76.54359-31.30785,85.75672-77.31655Z"/><path fill="#3f3d56" d="M316.09852,70.83746l13.85543,6.56339c-5.68289-7.93086-10.5797-20.31709-13.2013-30.17328-4.43872,9.18109-11.59408,20.41482-18.6768,27.12515l14.64366-3.76722c-9.02334,44.22323-42.96249,75.97114-81.82754,75.97115l-.55017,1.59735c40.59555-.00001,76.54359-31.30785,85.75672-77.31655Z"/><g><path fill="#ffb6b6" d="M528.61237,203.91895c-1.96642-2.34222-4.32152-3.93386-6.43633-4.54649l-24.87304-28.11738s-2.07728-26.17378-3.73911-35.31383c-1.66183-9.14005-12.87916-6.64731-12.87916-6.64731l1.24637,26.17378,7.06277,28.25106,29.1052,24.71004c.50827,.92595,1.13135,1.8515,1.87767,2.74043,3.54092,4.21745,8.34454,6.01337,10.72925,4.01125,2.38462-2.00212,1.4473-7.0441-2.09361-11.26156Z"/><path fill="#ffb6b6" d="M409.13359,203.91895c1.96642-2.34222,4.32152-3.93386,6.43633-4.54649l24.87304-28.11738s2.07728-26.17378,3.73911-35.31383c1.66183-9.14005,12.87916-6.64731,12.87916-6.64731l-1.24637,26.17378-7.06277,28.25106-29.1052,24.71004c-.50827,.92595-1.13135,1.8515-1.87767,2.74043-3.54092,4.21745-8.34454,6.01337-10.72925,4.01125-2.38462-2.00212-1.4473-7.0441,2.09361-11.26156Z"/><polygon fill="#ffb6b6" points="463.859 125.763 466.744 114.67 477.984 114.13 481.347 129.42 463.859 125.763"/><polygon points="463.859 125.763 466.744 114.67 477.984 114.13 481.347 129.42 463.859 125.763" opacity=".1"/><g><polygon fill="#ffb6b6" points="435.156 307.482 424.628 306.88 426.009 339.19 433.143 339.598 435.156 307.482"/><path fill="#2f2e41" d="M425.09709,328.97396l3.65553,1.66752-.00474,2.21591s.88192-2.56461,5.61584-3.12416l.56508,2.14847s1.836,2.10736,1.52109,5.91917l-1.20502,10.20785-3.5701-.0822-.57663-7.10316s-.98348-1.61184-5.51349,6.04724c0,0-4.99016,1.25773-12.71779-1.33333-1.06211-.35612-1.7999-1.34771-1.786-2.46785,.00767-.61816,.24929-1.18945,1.02444-1.39438,1.97309-.52164,3.89982,.13981,5.17402-1.43504,1.27419-1.57485,7.81777-11.26603,7.81777-11.26603Z"/></g><g><polygon fill="#ffb6b6" points="491.658 307.482 481.131 306.88 482.512 339.19 489.645 339.598 491.658 307.482"/><path fill="#2f2e41" d="M481.59922,328.97396l3.65553,1.66752-.00474,2.21591s.88192-2.56461,5.61584-3.12416l.56508,2.14847s1.836,2.10736,1.52109,5.91917l-1.20502,10.20785-3.5701-.0822-.57663-7.10316s-.98348-1.61184-5.51349,6.04724c0,0-4.99016,1.25773-12.71779-1.33333-1.06211-.35612-1.7999-1.34771-1.786-2.46785,.00767-.61816,.24929-1.18945,1.02444-1.39438,1.97309-.52164,3.89982,.13981,5.17402-1.43504,1.27419-1.57485,7.81777-11.26603,7.81777-11.26603Z"/></g><circle cx="472.501" cy="108.739" r="12.464" fill="#ffb6b6"/><path fill="#2f2e41" d="M479.56879,110.81081s-5.47986-8.96632-10.96523-7.97667-8.34493,1.88317-8.34493,1.88317c0,0-2.23377-7.14889,5.26573-10.57871,0,0-10.61309-8.8859,.6981-14.58858s18.34986-.17586,18.34986-.17586c0,0,9.36195,7.93962-1.01783,15.28744,0,0,8.98381,10.23351-.09001,20.00884,0,0,1.60185-7.44336-.57721-5.91743-2.17907,1.52593-3.31847,2.0578-3.31847,2.0578Z"/><path fill="#e6e6e6" d="M480.89245,126.59347l-17.03373-2.07728-13.08689,10.59415s-6.50863,18.13482-1.66183,29.08198c.11614,.26232,.20773,18.48783,.20773,18.48783h36.19054s-.03506-12.40528,1.34779-16.89822c.19755-.64185,.42404-1.12222,.6837-1.38188,2.07728-2.07728,7.06277-15.3719,4.57002-21.1883-2.49274-5.8164-11.21733-16.61827-11.21733-16.61827Z"/><polygon fill="#2f2e41" points="449.11 181.849 426.26 254.554 421.274 311.887 435.192 311.887 447.033 258.709 463.339 227.926 479.438 316.042 493.487 316.042 493.148 196.806 485.479 181.849 449.11 181.849"/><circle cx="468.502" cy="215.374" r="55.874" fill="#6c63ff"/></g><g><polygon fill="#a0616a" points="108.452 346.169 119.328 346.168 124.501 304.22 108.45 304.221 108.452 346.169"/><path fill="#2f2e41" d="M145.71256,345.92263h0c.33862,.5703,.51729,2.41097,.51729,3.07418h0c0,2.03853-1.65253,3.69113-3.69113,3.69113h-33.67964c-1.39068,0-2.51811-1.12736-2.51811-2.51811v-1.40219s-1.6661-4.21431,1.7641-9.40869c0,0,4.26328,4.06727,10.63372-2.30317l1.87859-3.4032,13.59838,9.94517,7.53738,.92778c1.64902,.20296,3.11104-.0315,3.95927,1.39709h.00013Z"/></g><polygon fill="#a0616a" points="116.682 127.776 116.902 113.108 107.856 107.469 98.02 119.501 116.682 127.776"/><polygon points="116.682 127.776 117.267 113.474 107.856 107.469 111.054 125.17 116.682 127.776" opacity=".1"/><circle cx="116.71" cy="101.586" r="16.087" fill="#a0616a"/><path fill="#2f2e41" d="M138.64931,224.77043l-14.98579,101.97645h-18.80168l2.50008-58.21065,1.31582-30.60755-3.81589-14.5691s-1.73982-3.23841-3.2055-7.16395c-1.65208-4.42994-2.95694-9.74075-1.01976-12.2591,.71274-.9284,2.56587-1.61556,5.08419-2.12725,1.53879-.31433,3.32979-.55924,5.26331-.74928,11.11872-1.10018,26.93421-.41302,26.93421-.41302l.40205,13.2679,.22298,7.40883,.10599,3.44673Z"/><g><polygon fill="#a0616a" points="89.295 341.182 100.055 342.763 111.275 302.013 95.395 299.68 89.295 341.182"/><path fill="#2f2e41" d="M126.19489,346.35776h0c.25206,.61349,.1611,2.46057,.06463,3.11673h0c-.29652,2.01685-2.17186,3.4115-4.18878,3.11497l-33.32144-4.89894c-1.37589-.20228-2.32734-1.48165-2.12505-2.8576l.20396-1.38728s-1.03538-4.41184,3.1139-9.05202c0,0,3.62633,4.64414,10.85564-.73192l2.35363-3.09375,12.00716,11.81738,7.32226,2.01428c1.60196,.44066,3.08253,.42136,3.71395,1.95814l.00013,.00002Z"/></g><path fill="#2f2e41" d="M138.88517,207.76361l-2.05544,17.70145-11.20934,37.30172-18.45243,61.41143-18.59965-2.73338,16.69297-87.31793-1.65286-14.97266s-.53828-1.4883-1.15531-3.66717c-1.22475-4.31057-2.76087-11.33033-1.07089-14.91107,.22819-.48675,.51466-.90908,.86904-1.25104,.6647-.64462,2.01566-1.03607,3.82564-1.24371,7.56538-.85504,23.14582,1.59052,30.07871,2.79103l2.72954,6.89131Z"/><path fill="#3f3d56" d="M100.08833,116.39761l18.27535,8.77217s19.37187,57.3846,19.37187,60.30865c0,2.92406,5.4826,4.75159,2.19304,8.04115-3.28956,3.28956,6.12278,6.07547,1.0511,8.7031s-36.70961,17.00037-40.2276,15.70427c-9.7028-3.57472,.41117-16.71013,.41117-16.71013,0,0-7.28855-5.8697-6.19203-8.79375s-6.57913-58.84663-6.57913-58.84663l11.69622-17.17883Z"/><path fill="#2f2e41" d="M115.72746,105.43864l2.06912,4.13825s2.06912-7.44885,5.37972-9.10415c3.3106-1.6553,3.72442-4.13825,3.72442-4.13825,0,0,4.13825,5.37972,7.03502,4.13825,2.89677-1.24147,4.13825-2.06912,.82765-7.03502s-2.48295-2.48295-2.48295-2.48295c0,0-2.89677-4.13825-2.48295-2.89677,.41382,1.24147-2.48295-3.3106-2.48295-2.06912,0,1.24147-2.06912-2.48295-2.06912-1.24147,0,1.24147-8.69032-2.89677-7.44885-1.24147s-7.44885-3.3106-11.5871,3.3106c-4.13825,6.6212-9.8764,5.39674-7.83498,9.52648s1.21378,15.30301,1.21378,15.30301h5.7072s5.8799-11.17327,10.43197-6.20737Z"/><rect width="34" height="34" x="545.941" y="24.811" fill="#e6e6e6"/><path fill="#e6e6e6" d="M659.94062,24.81055h.00003V58.81055h-34v-.00003c0-18.76509,15.23487-33.99997,33.99997-33.99997Z"/><circle cx="602.941" cy="42.811" r="16" fill="#ccc"/><polyline fill="#f2f2f2" points="545.941 24.811 530.941 14.811 530.941 41.811 545.941 58.811"/><path fill="#fff" d="M306.08532,13.76915l18.80925-.56863c1.30636-.03949,1.4317-2.08292,.11345-2.04307l-18.80925,.56863c-1.30636,.03949-1.4317,2.08292-.11345,2.04307h0Z"/><path fill="#fff" d="M306.08532,20.63306l18.80925-.56863c1.30636-.03949,1.4317-2.08292,.11345-2.04307l-18.80925,.56863c-1.30636,.03949-1.4317,2.08292-.11345,2.04307h0Z"/><path fill="#fff" d="M306.08532,27.49696l18.80925-.56863c1.30636-.03949,1.4317-2.08292,.11345-2.04307l-18.80925,.56863c-1.30636,.03949-1.4317,2.08292-.11345,2.04307h0Z"/><path fill="#fff" d="M263.83552,15.50926c3.1169-3.79637,8.75741,.01334,12.42558,.65665,2.14574,.37631,4.36044,.17766,6.1721-1.12305,1.60417-1.15174,2.75531-2.88544,3.05969-4.84883,.20097-1.2964-1.7829-1.85502-1.98562-.54741-.28628,1.84668-1.42513,3.46385-3.15666,4.23137-2.08975,.92632-4.48729,.18016-6.52072-.52759-3.62541-1.26184-8.52229-2.86366-11.45043,.7028-.83443,1.01633,.61426,2.48136,1.45605,1.45605h0Z"/><path fill="#fff" d="M263.83552,23.74595c3.1169-3.79637,8.75741,.01334,12.42558,.65665,2.14574,.37631,4.36044,.17766,6.1721-1.12305,1.60417-1.15174,2.75531-2.88544,3.05969-4.84883,.20097-1.2964-1.7829-1.85502-1.98562-.54741-.28628,1.84668-1.42513,3.46385-3.15666,4.23137-2.08975,.92632-4.48729,.18016-6.52072-.52759-3.62541-1.26184-8.52229-2.86366-11.45043,.7028-.83443,1.01633,.61426,2.48136,1.45605,1.45605h0Z"/><path fill="#6c63ff" d="M209.16136,193.31055h-47.44141c-3.13916,0-5.69287-2.55371-5.69287-5.69336V120.00391c0-3.13965,2.55371-5.69336,5.69287-5.69336h47.44141c3.13916,0,5.69287,2.55371,5.69287,5.69336v67.61328c0,3.13965-2.55371,5.69336-5.69287,5.69336Z"/><path fill="#fff" d="M352.0668,8.84107c.99094,8.38935,1.31299,16.85185,.9268,25.29134-.05985,1.30796,1.97152,1.65634,2.03208,.3329,.39475-8.6265,.10216-17.26688-.91089-25.84344-.15516-1.31362-2.20399-1.10148-2.04799,.2192h0Z"/><path fill="#fff" d="M358.9307,8.84107c.99094,8.38935,1.31299,16.85185,.9268,25.29134-.05985,1.30796,1.97152,1.65634,2.03208,.3329,.39475-8.6265,.10216-17.26688-.91089-25.84344-.15516-1.31362-2.20399-1.10148-2.04799,.2192h0Z"/><path fill="#fff" d="M365.79461,8.84107c.99094,8.38935,1.31299,16.85185,.9268,25.29134-.05985,1.30796,1.97152,1.65634,2.03208,.3329,.39475-8.6265,.10216-17.26688-.91089-25.84344-.15516-1.31362-2.20399-1.10148-2.04799,.2192h0Z"/><g><path id="uuid-264cfc9b-ec7b-45c7-b901-d09aac5ec40c-288" fill="#a0616a" d="M155.77513,166.96237c4.53556-1.33997,8.90339-.08589,9.75568,2.80071,.85229,2.8866-2.13351,6.31199-6.67086,7.65183-1.80515,.56007-3.71817,.6797-5.57902,.34887l-19.28905,5.4348-2.35746-9.10615,19.26587-4.39097c1.38288-1.28925,3.05446-2.2285,4.87483-2.7391Z"/><path fill="#3f3d56" d="M121.65775,134.69035l-3.02326,36.16781,27.08051,.29119,5.25571,8.0928s-32.82312,19.00521-42.67896,9.29416c-9.85585-9.71105-14.24118-50.57605-5.47848-57.57094,8.7627-6.99488,18.84449,3.72498,18.84449,3.72498Z"/></g><path fill="#fff" d="M166.755,140.08626l37.08585-1.12115c2.57572-.07787,2.82286-4.10685,.22369-4.02828l-37.08585,1.12115c-2.57572,.07787-2.82286,4.10685-.22369,4.02828h0Z"/><path fill="#fff" d="M166.755,153.53454l37.08585-1.12115c2.57572-.07787,2.82286-4.10685,.22369-4.02828l-37.08585,1.12115c-2.57572,.07787-2.82286,4.10685-.22369,4.02828h0Z"/><path fill="#fff" d="M166.755,166.98281l37.08585-1.12115c2.57572-.07787,2.82286-4.10685,.22369-4.02828l-37.08585,1.12115c-2.57572,.07787-2.82286,4.10685-.22369,4.02828h0Z"/></svg>