<svg width="40" height="19" viewBox="0 0 40 19" fill="none" xmlns="http://www.w3.org/2000/svg">
<path d="M39.16 8.41998C39.16 8.40998 39.16 8.40998 39.16 8.41998L31.15 0.449975C30.55 -0.150025 29.58 -0.140025 28.98 0.459975C28.38 1.05998 28.39 2.02998 28.99 2.62998L34.37 7.97998H1.92001C1.07001 7.97998 0.390015 8.66998 0.390015 9.50998C0.390015 10.36 1.08001 11.04 1.92001 11.04H34.37L28.99 16.39C28.39 16.99 28.39 17.96 28.98 18.56C29.58 19.16 30.55 19.16 31.15 18.57L39.16 10.6C39.76 9.98998 39.76 9.00998 39.16 8.41998Z" fill="white"/>
</svg>
