<svg width="40" height="19" viewBox="0 0 40 19" fill="none" xmlns="http://www.w3.org/2000/svg">
<path d="M0.839985 8.41998C0.839985 8.40998 0.839985 8.40998 0.839985 8.41998L8.84999 0.449975C9.44999 -0.150025 10.42 -0.140025 11.02 0.459975C11.62 1.05998 11.61 2.02998 11.01 2.62998L5.62999 7.97998H38.08C38.93 7.97998 39.61 8.66998 39.61 9.50998C39.61 10.36 38.92 11.04 38.08 11.04H5.62999L11.01 16.39C11.61 16.99 11.61 17.96 11.02 18.56C10.42 19.16 9.44999 19.16 8.84999 18.57L0.839985 10.6C0.239986 9.98998 0.239986 9.00998 0.839985 8.41998Z" fill="white"/>
</svg>
