<svg width="40" height="41" viewBox="0 0 40 41" fill="none" xmlns="http://www.w3.org/2000/svg">
<path d="M20 0C16.0444 0 12.1776 1.17382 8.8886 3.37304C5.59962 5.57226 3.03618 8.69809 1.52242 12.3552C0.00867128 16.0124 -0.387403 20.0366 0.384301 23.9191C1.15601 27.8015 3.06082 31.3677 5.85787 34.1668C8.65492 36.9659 12.2186 38.8721 16.0982 39.6443C19.9778 40.4166 23.9991 40.0202 27.6537 38.5054C31.3082 36.9906 34.4318 34.4253 36.6294 31.1339C38.827 27.8425 40 23.9729 40 20.0145C40 14.7063 37.8929 9.61553 34.1422 5.8621C30.3914 2.10866 25.3043 0 20 0ZM25.07 18.1231L24.74 20.9051C24.7252 21.0351 24.6629 21.1551 24.5651 21.2419C24.4672 21.3287 24.3408 21.3763 24.21 21.3754H21.32V29.6414C21.32 29.7405 21.2814 29.8358 21.2123 29.9068C21.1431 29.9778 21.0491 30.0191 20.95 30.0217H18C17.9506 30.0217 17.9016 30.0118 17.8561 29.9926C17.8105 29.9733 17.7693 29.9452 17.7348 29.9097C17.7003 29.8743 17.6732 29.8323 17.6552 29.7862C17.6373 29.7401 17.6287 29.6909 17.63 29.6414V21.3754H15.44C15.2994 21.3754 15.1646 21.3196 15.0652 21.2201C14.9658 21.1206 14.91 20.9857 14.91 20.845V18.063C14.91 17.9224 14.9658 17.7875 15.0652 17.688C15.1646 17.5885 15.2994 17.5327 15.44 17.5327H17.61V14.8307C17.61 11.7085 19.47 10.0072 22.19 10.0072H24.42C24.5606 10.0072 24.6954 10.0631 24.7948 10.1626C24.8942 10.262 24.95 10.3969 24.95 10.5376V12.8793C24.95 13.02 24.8942 13.1549 24.7948 13.2543C24.6954 13.3538 24.5606 13.4097 24.42 13.4097H23.05C21.57 13.4097 21.3 14.1402 21.3 15.201V17.5327H24.54C24.6087 17.5326 24.6767 17.5464 24.7399 17.5733C24.8031 17.6002 24.8603 17.6396 24.9079 17.6891C24.9555 17.7387 24.9926 17.7973 25.0171 17.8616C25.0415 17.9258 25.0527 17.9944 25.05 18.063V18.1231H25.07Z" fill="#4267B2"/>
<path d="M25.07 18.1231L24.74 20.9051C24.7252 21.0351 24.6629 21.1551 24.5651 21.2419C24.4672 21.3287 24.3408 21.3763 24.21 21.3754H21.32V29.6414C21.32 29.7405 21.2814 29.8358 21.2123 29.9068C21.1431 29.9778 21.0491 30.0191 20.95 30.0217H18C17.9506 30.0217 17.9016 30.0118 17.8561 29.9926C17.8105 29.9733 17.7693 29.9452 17.7348 29.9097C17.7003 29.8743 17.6732 29.8323 17.6552 29.7862C17.6373 29.7401 17.6287 29.6909 17.63 29.6414V21.3754H15.44C15.2994 21.3754 15.1646 21.3196 15.0652 21.2201C14.9658 21.1206 14.91 20.9857 14.91 20.845V18.063C14.91 17.9224 14.9658 17.7875 15.0652 17.688C15.1646 17.5885 15.2994 17.5327 15.44 17.5327H17.61V14.8307C17.61 11.7085 19.47 10.0072 22.19 10.0072H24.42C24.5606 10.0072 24.6954 10.0631 24.7948 10.1626C24.8942 10.262 24.95 10.3969 24.95 10.5376V12.8793C24.95 13.02 24.8942 13.1549 24.7948 13.2543C24.6954 13.3538 24.5606 13.4097 24.42 13.4097H23.05C21.57 13.4097 21.3 14.1402 21.3 15.201V17.5327H24.54C24.6087 17.5326 24.6767 17.5464 24.7399 17.5733C24.8031 17.6002 24.8603 17.6396 24.9079 17.6891C24.9555 17.7387 24.9926 17.7973 25.0171 17.8616C25.0415 17.9258 25.0527 17.9944 25.05 18.063V18.1231H25.07Z" fill="white"/>
</svg>
