<svg width="40" height="41" viewBox="0 0 40 41" fill="none" xmlns="http://www.w3.org/2000/svg">
<path d="M20 0C16.0444 0 12.1776 1.17382 8.8886 3.37304C5.59962 5.57225 3.03617 8.69809 1.52241 12.3553C0.00866222 16.0124 -0.3874 20.0366 0.384305 23.9191C1.15601 27.8015 3.06081 31.3677 5.85786 34.1668C8.65491 36.9659 12.2186 38.8721 16.0982 39.6443C19.9778 40.4166 23.9991 40.0202 27.6537 38.5054C31.3082 36.9905 34.4318 34.4252 36.6294 31.1339C38.827 27.8425 40 23.9729 40 20.0144C40 14.7063 37.8929 9.61553 34.1421 5.86209C30.3914 2.10866 25.3043 0 20 0ZM30 24.0173C29.9958 25.5957 29.3674 27.1083 28.2521 28.2244C27.1368 29.3405 25.6253 29.9694 24.048 29.9736H15.952C14.3747 29.9694 12.8633 29.3405 11.748 28.2244C10.6327 27.1083 10.0042 25.5957 10 24.0173V15.9155C10.0042 14.3371 10.6327 12.8245 11.748 11.7084C12.8633 10.5923 14.3747 9.96341 15.952 9.95919H24.048C25.6253 9.96341 27.1368 10.5923 28.2521 11.7084C29.3674 12.8245 29.9958 14.3371 30 15.9155V24.0173Z" fill="#E1306C"/>
<path d="M24.048 12.0087H15.952C15.4338 12.0087 14.9207 12.1111 14.4421 12.31C13.9635 12.509 13.5289 12.8005 13.1632 13.168C12.7975 13.5354 12.5079 13.9715 12.311 14.4513C12.1142 14.931 12.0139 15.4449 12.016 15.9635V23.9693C12.016 25.0139 12.4307 26.0158 13.1689 26.7545C13.907 27.4931 14.9081 27.9081 15.952 27.9081H24.048C25.0919 27.9081 26.093 27.4931 26.8312 26.7545C27.5693 26.0158 27.984 25.0139 27.984 23.9693V15.8675C27.9631 14.8367 27.5392 13.8553 26.8033 13.1339C26.0674 12.4124 25.0782 12.0085 24.048 12.0087ZM20 25.1862C18.9779 25.1862 17.9787 24.8828 17.1288 24.3146C16.279 23.7463 15.6166 22.9386 15.2254 21.9936C14.8343 21.0485 14.7319 20.0087 14.9313 19.0055C15.1307 18.0023 15.623 17.0808 16.3457 16.3575C17.0685 15.6342 17.9893 15.1416 18.9918 14.9421C19.9943 14.7425 21.0334 14.8449 21.9777 15.2364C22.922 15.6278 23.7292 16.2907 24.2971 17.1412C24.8649 17.9917 25.168 18.9916 25.168 20.0144C25.168 21.3861 24.6236 22.7015 23.6544 23.6714C22.6852 24.6413 21.3707 25.1862 20 25.1862ZM25.2 16.1236C24.8606 16.1236 24.535 15.9887 24.295 15.7484C24.0549 15.5082 23.9201 15.1824 23.9201 14.8427C23.9201 14.503 24.0549 14.1772 24.295 13.937C24.535 13.6967 24.8606 13.5618 25.2 13.5618C25.3674 13.5597 25.5334 13.5908 25.6887 13.6534C25.8439 13.716 25.9851 13.8089 26.1042 13.9266C26.2233 14.0442 26.3178 14.1844 26.3823 14.3389C26.4468 14.4934 26.48 14.6592 26.48 14.8267C26.48 15.1679 26.3457 15.4954 26.1061 15.7382C25.8665 15.9809 25.541 16.1194 25.2 16.1236Z" fill="#E1306C"/>
<path d="M20 23.1848C21.7497 23.1848 23.168 21.7654 23.168 20.0145C23.168 18.2636 21.7497 16.8442 20 16.8442C18.2504 16.8442 16.832 18.2636 16.832 20.0145C16.832 21.7654 18.2504 23.1848 20 23.1848Z" fill="#E1306C"/>
<path fill-rule="evenodd" clip-rule="evenodd" d="M30 24.0173C29.9958 25.5957 29.3674 27.1083 28.2521 28.2244C27.1368 29.3405 25.6253 29.9694 24.048 29.9736H15.952C14.3747 29.9694 12.8633 29.3405 11.748 28.2244C10.6327 27.1083 10.0042 25.5957 10 24.0173V15.9155C10.0042 14.3371 10.6327 12.8245 11.748 11.7084C12.8633 10.5923 14.3747 9.96341 15.952 9.95919H24.048C25.6253 9.96341 27.1368 10.5923 28.2521 11.7084C29.3674 12.8245 29.9958 14.3371 30 15.9155V24.0173ZM15.952 12.0087H24.048C25.0782 12.0085 26.0674 12.4124 26.8033 13.1339C27.5392 13.8553 27.9631 14.8367 27.984 15.8675V23.9693C27.984 25.0139 27.5693 26.0158 26.8312 26.7545C26.093 27.4931 25.0919 27.9081 24.048 27.9081H15.952C14.9081 27.9081 13.907 27.4931 13.1689 26.7545C12.4307 26.0158 12.016 25.0139 12.016 23.9693V15.9635C12.0139 15.4449 12.1142 14.931 12.311 14.4513C12.5079 13.9715 12.7975 13.5354 13.1632 13.168C13.5289 12.8005 13.9635 12.509 14.4421 12.31C14.9207 12.1111 15.4338 12.0087 15.952 12.0087Z" fill="white"/>
<path fill-rule="evenodd" clip-rule="evenodd" d="M20 25.1862C18.9779 25.1862 17.9787 24.8828 17.1288 24.3146C16.279 23.7463 15.6166 22.9386 15.2254 21.9936C14.8343 21.0485 14.7319 20.0087 14.9313 19.0055C15.1307 18.0023 15.623 17.0808 16.3457 16.3575C17.0685 15.6342 17.9893 15.1416 18.9918 14.9421C19.9943 14.7425 21.0334 14.8449 21.9777 15.2364C22.922 15.6278 23.7292 16.2907 24.2971 17.1412C24.8649 17.9917 25.168 18.9916 25.168 20.0144C25.168 21.3861 24.6236 22.7015 23.6544 23.6714C22.6852 24.6413 21.3707 25.1862 20 25.1862ZM20 23.1848C21.7497 23.1848 23.168 21.7654 23.168 20.0145C23.168 18.2636 21.7497 16.8442 20 16.8442C18.2504 16.8442 16.832 18.2636 16.832 20.0145C16.832 21.7654 18.2504 23.1848 20 23.1848Z" fill="white"/>
<path d="M25.2 16.1236C24.8606 16.1236 24.535 15.9887 24.295 15.7484C24.0549 15.5082 23.9201 15.1824 23.9201 14.8427C23.9201 14.503 24.0549 14.1772 24.295 13.937C24.535 13.6967 24.8606 13.5618 25.2 13.5618C25.3674 13.5597 25.5334 13.5908 25.6887 13.6534C25.8439 13.716 25.9851 13.8089 26.1042 13.9266C26.2233 14.0442 26.3178 14.1844 26.3823 14.3389C26.4468 14.4934 26.48 14.6592 26.48 14.8267C26.48 15.1679 26.3457 15.4954 26.1061 15.7382C25.8665 15.9809 25.541 16.1194 25.2 16.1236Z" fill="white"/>
</svg>
