<svg width="40" height="41" viewBox="0 0 40 41" fill="none" xmlns="http://www.w3.org/2000/svg">
<path d="M20 0C16.0444 0 12.1776 1.17382 8.8886 3.37304C5.59962 5.57225 3.03617 8.69809 1.52241 12.3553C0.00866222 16.0124 -0.3874 20.0366 0.384305 23.9191C1.15601 27.8015 3.06081 31.3677 5.85786 34.1668C8.65491 36.9659 12.2186 38.8721 16.0982 39.6443C19.9778 40.4166 23.9991 40.0202 27.6537 38.5054C31.3082 36.9905 34.4318 34.4252 36.6294 31.1339C38.827 27.8425 40 23.9729 40 20.0144C40 14.7063 37.8929 9.61553 34.1421 5.86209C30.3914 2.10866 25.3043 0 20 0ZM29.968 13.9621C29.4911 14.6713 28.9083 15.3031 28.24 15.8354C28.159 15.9079 28.0943 15.9968 28.0502 16.0961C28.0061 16.1955 27.9835 16.3031 27.984 16.4118C27.9786 17.8395 27.7185 19.2547 27.216 20.5908C26.6901 21.9892 25.9148 23.2804 24.928 24.4016C23.6045 25.8949 21.9016 27.0015 20 27.6039C18.7504 28.0135 17.443 28.219 16.128 28.2123C14.0381 28.2093 11.9857 27.6571 10.176 26.6112C10.1101 26.5744 10.0584 26.5165 10.0294 26.4468C10.0004 26.3771 9.99567 26.2997 10.016 26.2269C10.0341 26.1565 10.0757 26.0943 10.1339 26.0506C10.1921 26.007 10.2633 25.9845 10.336 25.9868H10.832C12.4212 25.9814 13.9737 25.5081 15.296 24.6258C14.5086 24.5003 13.7715 24.1583 13.1669 23.6381C12.5623 23.1179 12.114 22.4399 11.872 21.6797C11.862 21.6513 11.8579 21.6212 11.8597 21.5912C11.8616 21.5612 11.8695 21.5319 11.883 21.505C11.8964 21.4781 11.9151 21.4542 11.9379 21.4347C11.9608 21.4152 11.9873 21.4004 12.016 21.3914H12.128C12.3727 21.4158 12.6193 21.4158 12.864 21.3914H12.944C12.2093 21.0626 11.5815 20.5342 11.1318 19.8663C10.6821 19.1983 10.4286 18.4176 10.4 17.6127C10.4 17.5533 10.4236 17.4962 10.4656 17.4542C10.5076 17.4122 10.5646 17.3885 10.624 17.3885C10.6414 17.3801 10.6606 17.3756 10.68 17.3756C10.6994 17.3756 10.7186 17.3801 10.736 17.3885C11.0449 17.5512 11.3727 17.6749 11.712 17.7568C11.0329 17.0843 10.5967 16.2048 10.4721 15.2568C10.3475 14.3089 10.5417 13.3464 11.024 12.521C11.0372 12.4943 11.0559 12.4706 11.079 12.4517C11.1021 12.4328 11.1289 12.4191 11.1577 12.4115C11.1866 12.4039 11.2167 12.4027 11.2461 12.4077C11.2754 12.4128 11.3034 12.4242 11.328 12.441C12.2748 13.6206 13.4505 14.5961 14.7841 15.3088C16.1178 16.0215 17.5818 16.4567 19.088 16.588C19.1304 16.588 19.1711 16.5711 19.2012 16.5411C19.2312 16.511 19.248 16.4703 19.248 16.4278C19.1795 15.8928 19.2121 15.3497 19.344 14.8267C19.5088 14.1221 19.8556 13.4731 20.3499 12.9449C20.8441 12.4166 21.4683 12.0275 22.16 11.8165C22.6002 11.6767 23.0583 11.6012 23.52 11.5924C24.5714 11.5894 25.5864 11.9774 26.368 12.6811C26.4779 12.768 26.6121 12.8184 26.752 12.8252H26.88C27.6173 12.6417 28.3236 12.3504 28.976 11.9606C29.0294 11.9305 29.0924 11.922 29.1519 11.9369C29.2114 11.9518 29.263 11.989 29.296 12.0407C29.3209 12.1023 29.3209 12.1712 29.296 12.2328C29.0758 12.9221 28.6851 13.5445 28.16 14.0421C28.6348 13.9328 29.0962 13.7717 29.536 13.5618C29.5643 13.5518 29.5944 13.5476 29.6244 13.5495C29.6544 13.5514 29.6837 13.5593 29.7106 13.5727C29.7374 13.5862 29.7613 13.6049 29.7808 13.6278C29.8003 13.6507 29.815 13.6772 29.824 13.7059C29.8395 13.7356 29.8475 13.7685 29.8475 13.8019C29.8475 13.8354 29.8395 13.8683 29.824 13.898L29.968 13.9621Z" fill="#1DA1F2"/>
<path d="M29.968 13.9621C29.4911 14.6713 28.9083 15.3031 28.24 15.8354C28.159 15.9079 28.0943 15.9968 28.0502 16.0961C28.0061 16.1955 27.9835 16.3031 27.984 16.4118C27.9786 17.8395 27.7185 19.2547 27.216 20.5908C26.6901 21.9892 25.9148 23.2804 24.928 24.4016C23.6045 25.8949 21.9016 27.0015 20 27.6039C18.7504 28.0135 17.443 28.219 16.128 28.2123C14.0381 28.2093 11.9857 27.6571 10.176 26.6112C10.1101 26.5744 10.0584 26.5165 10.0294 26.4468C10.0004 26.3771 9.99567 26.2997 10.016 26.2269C10.0341 26.1565 10.0757 26.0943 10.1339 26.0506C10.1921 26.007 10.2633 25.9845 10.336 25.9868H10.832C12.4212 25.9814 13.9737 25.5081 15.296 24.6258C14.5086 24.5003 13.7715 24.1583 13.1669 23.6381C12.5623 23.1179 12.114 22.4399 11.872 21.6797C11.862 21.6513 11.8579 21.6212 11.8597 21.5912C11.8616 21.5612 11.8695 21.5319 11.883 21.505C11.8964 21.4781 11.9151 21.4542 11.9379 21.4347C11.9608 21.4152 11.9873 21.4004 12.016 21.3914H12.128C12.3727 21.4158 12.6193 21.4158 12.864 21.3914H12.944C12.2093 21.0626 11.5815 20.5342 11.1318 19.8663C10.6821 19.1983 10.4286 18.4176 10.4 17.6127C10.4 17.5533 10.4236 17.4962 10.4656 17.4542C10.5076 17.4122 10.5646 17.3885 10.624 17.3885C10.6414 17.3801 10.6606 17.3756 10.68 17.3756C10.6994 17.3756 10.7186 17.3801 10.736 17.3885C11.0449 17.5512 11.3727 17.6749 11.712 17.7568C11.0329 17.0843 10.5967 16.2048 10.4721 15.2568C10.3475 14.3089 10.5417 13.3464 11.024 12.521C11.0372 12.4943 11.0559 12.4706 11.079 12.4517C11.1021 12.4328 11.1289 12.4191 11.1577 12.4115C11.1866 12.4039 11.2167 12.4027 11.2461 12.4077C11.2754 12.4128 11.3034 12.4242 11.328 12.441C12.2748 13.6206 13.4505 14.5961 14.7841 15.3088C16.1178 16.0215 17.5818 16.4567 19.088 16.588C19.1304 16.588 19.1711 16.5711 19.2012 16.5411C19.2312 16.511 19.248 16.4703 19.248 16.4278C19.1795 15.8928 19.2121 15.3497 19.344 14.8267C19.5088 14.1221 19.8556 13.4731 20.3499 12.9449C20.8441 12.4166 21.4683 12.0275 22.16 11.8165C22.6002 11.6767 23.0583 11.6012 23.52 11.5924C24.5714 11.5894 25.5864 11.9774 26.368 12.6811C26.4779 12.768 26.6121 12.8184 26.752 12.8252H26.88C27.6173 12.6417 28.3236 12.3504 28.976 11.9606C29.0294 11.9305 29.0924 11.922 29.1519 11.9369C29.2114 11.9518 29.263 11.989 29.296 12.0407C29.3209 12.1023 29.3209 12.1712 29.296 12.2328C29.0758 12.9221 28.6851 13.5445 28.16 14.0421C28.6348 13.9328 29.0962 13.7717 29.536 13.5618C29.5643 13.5518 29.5944 13.5476 29.6244 13.5495C29.6544 13.5514 29.6837 13.5593 29.7106 13.5727C29.7374 13.5862 29.7613 13.6049 29.7808 13.6278C29.8003 13.6507 29.815 13.6772 29.824 13.7059C29.8395 13.7356 29.8475 13.7685 29.8475 13.8019C29.8475 13.8354 29.8395 13.8683 29.824 13.898L29.968 13.9621Z" fill="white"/>
</svg>
