<svg width="40" height="40" viewBox="0 0 40 40" fill="none" xmlns="http://www.w3.org/2000/svg">
<path d="M20 0C16.0444 0 12.1776 1.17298 8.8886 3.37061C5.59962 5.56823 3.03618 8.69181 1.52242 12.3463C0.00867128 16.0009 -0.387403 20.0222 0.384301 23.9018C1.15601 27.7814 3.06082 31.3451 5.85787 34.1422C8.65492 36.9392 12.2186 38.844 16.0982 39.6157C19.9778 40.3874 23.9991 39.9914 27.6537 38.4776C31.3082 36.9638 34.4318 34.4004 36.6294 31.1114C38.827 27.8224 40 23.9556 40 20C40 14.6957 37.8929 9.60859 34.1422 5.85786C30.3914 2.10714 25.3043 0 20 0ZM25.07 18.11L24.74 20.89C24.7252 21.0199 24.6629 21.1398 24.5651 21.2266C24.4672 21.3133 24.3408 21.3608 24.21 21.36H21.32V29.62C21.32 29.7191 21.2814 29.8142 21.2123 29.8852C21.1431 29.9562 21.0491 29.9974 20.95 30H18C17.9506 30 17.9016 29.9901 17.8561 29.9709C17.8105 29.9517 17.7693 29.9235 17.7348 29.8881C17.7003 29.8527 17.6732 29.8107 17.6552 29.7647C17.6373 29.7186 17.6287 29.6694 17.63 29.62V21.36H15.44C15.2994 21.36 15.1646 21.3042 15.0652 21.2048C14.9658 21.1054 14.91 20.9706 14.91 20.83V18.05C14.91 17.9094 14.9658 17.7746 15.0652 17.6752C15.1646 17.5758 15.2994 17.52 15.44 17.52H17.61V14.82C17.61 11.7 19.47 10 22.19 10H24.42C24.5606 10 24.6954 10.0558 24.7948 10.1552C24.8942 10.2546 24.95 10.3894 24.95 10.53V12.87C24.95 13.0106 24.8942 13.1454 24.7948 13.2448C24.6954 13.3442 24.5606 13.4 24.42 13.4H23.05C21.57 13.4 21.3 14.13 21.3 15.19V17.52H24.54C24.6087 17.52 24.6767 17.5338 24.7399 17.5606C24.8031 17.5875 24.8603 17.6269 24.9079 17.6764C24.9555 17.7259 24.9926 17.7845 25.0171 17.8487C25.0415 17.9129 25.0527 17.9814 25.05 18.05V18.11H25.07Z" fill="#DEDFE8"/>
</svg>
