<svg width="38" height="38" viewBox="0 0 38 38" fill="none" xmlns="http://www.w3.org/2000/svg">
<g clip-path="url(#clip0_101_438)">
<path d="M27.7115 38.0001C22.04 38.0001 17.423 33.3831 17.423 27.7116C17.423 22.0401 22.04 17.4231 27.7115 17.4231C33.383 17.4231 38 22.0306 38 27.7116C38 33.3926 33.383 38.0001 27.7115 38.0001ZM27.7115 19.7886C23.3415 19.7886 19.798 23.3416 19.798 27.7021C19.798 32.0626 23.351 35.6156 27.7115 35.6156C32.072 35.6156 35.625 32.0626 35.625 27.7021C35.625 23.3416 32.072 19.7886 27.7115 19.7886Z" fill="black"/>
<path d="M26.125 31.6635C25.8115 31.6635 25.5075 31.54 25.289 31.312L22.1255 28.1485C21.66 27.683 21.66 26.9325 22.1255 26.467C22.591 26.0015 23.3415 26.0015 23.807 26.467L26.0775 28.7375L30.78 23.3605C31.217 22.8665 31.9675 22.819 32.4615 23.2465C32.9555 23.674 33.003 24.434 32.5755 24.9185L27.037 31.255C26.8185 31.502 26.505 31.654 26.182 31.6635C26.1535 31.6635 26.1345 31.6635 26.125 31.6635Z" fill="black"/>
<path d="M13.4615 33.2499C13.3855 33.2499 13.3095 33.2404 13.2335 33.2309C13.1005 33.2024 0 30.4949 0 15.7224V5.93743C0 5.44343 0.304 5.00643 0.76 4.82593L13.034 0.0759336C13.3095 -0.0285664 13.6135 -0.0285664 13.889 0.0759336L26.163 4.82593C26.619 5.00643 26.923 5.44343 26.923 5.93743V13.0624C26.923 13.7179 26.391 14.2499 25.7355 14.2499C25.08 14.2499 24.548 13.7179 24.548 13.0624V6.75443L13.4615 2.46043L2.375 6.75443V15.7224C2.375 27.7494 11.894 30.4759 13.4805 30.8559C14.1265 30.7229 14.7535 31.1409 14.877 31.7869C15.01 32.4329 14.592 33.0599 13.946 33.1834L13.6515 33.2404C13.585 33.2404 13.5185 33.2499 13.4615 33.2499Z" fill="black"/>
</g>
<defs>
<clipPath id="clip0_101_438">
<rect width="38" height="38" fill="white"/>
</clipPath>
</defs>
</svg>
