<svg width="40" height="40" viewBox="0 0 40 40" fill="none" xmlns="http://www.w3.org/2000/svg">
<path d="M20 23.168C21.7497 23.168 23.168 21.7496 23.168 20C23.168 18.2504 21.7497 16.832 20 16.832C18.2504 16.832 16.832 18.2504 16.832 20C16.832 21.7496 18.2504 23.168 20 23.168Z" fill="#DEDFE8"/>
<path d="M24.048 12H15.952C15.4338 12 14.9207 12.1023 14.4421 12.3011C13.9635 12.4999 13.5289 12.7913 13.1632 13.1585C12.7975 13.5257 12.5079 13.9615 12.311 14.4408C12.1142 14.9202 12.0139 15.4338 12.016 15.952V23.952C12.016 24.9959 12.4307 25.997 13.1689 26.7352C13.907 27.4733 14.9081 27.888 15.952 27.888H24.048C25.0919 27.888 26.093 27.4733 26.8312 26.7352C27.5693 25.997 27.984 24.9959 27.984 23.952V15.856C27.9631 14.826 27.5392 13.8453 26.8033 13.1244C26.0674 12.4035 25.0782 11.9998 24.048 12ZM20 25.168C18.9779 25.168 17.9787 24.8649 17.1288 24.297C16.279 23.7292 15.6166 22.922 15.2254 21.9777C14.8343 21.0334 14.7319 19.9943 14.9313 18.9918C15.1307 17.9893 15.623 17.0684 16.3457 16.3457C17.0685 15.6229 17.9893 15.1307 18.9918 14.9313C19.9943 14.7319 21.0334 14.8342 21.9777 15.2254C22.922 15.6165 23.7292 16.2789 24.2971 17.1288C24.8649 17.9787 25.168 18.9779 25.168 20C25.168 21.3706 24.6236 22.6852 23.6544 23.6543C22.6852 24.6235 21.3707 25.168 20 25.168ZM25.2 16.112C24.8606 16.112 24.535 15.9771 24.295 15.7371C24.0549 15.497 23.9201 15.1715 23.9201 14.832C23.9201 14.4925 24.0549 14.167 24.295 13.9269C24.535 13.6869 24.8606 13.552 25.2 13.552C25.3674 13.5499 25.5334 13.581 25.6887 13.6436C25.8439 13.7062 25.9851 13.7989 26.1042 13.9165C26.2233 14.0341 26.3178 14.1742 26.3823 14.3286C26.4468 14.483 26.48 14.6486 26.48 14.816C26.48 15.157 26.3457 15.4842 26.1061 15.7268C25.8665 15.9694 25.541 16.1078 25.2 16.112Z" fill="#DEDFE8"/>
<path d="M20 0C16.0444 0 12.1776 1.17298 8.8886 3.37061C5.59962 5.56823 3.03617 8.69182 1.52242 12.3463C0.00866234 16.0009 -0.3874 20.0222 0.384305 23.9018C1.15601 27.7814 3.06081 31.3451 5.85786 34.1421C8.65491 36.9392 12.2186 38.844 16.0982 39.6157C19.9778 40.3874 23.9991 39.9913 27.6537 38.4776C31.3082 36.9638 34.4318 34.4004 36.6294 31.1114C38.827 27.8224 40 23.9556 40 20C40 14.6957 37.8929 9.60859 34.1421 5.85786C30.3914 2.10713 25.3043 0 20 0ZM30 24C29.9958 25.5773 29.3674 27.0888 28.2521 28.2041C27.1368 29.3194 25.6253 29.9478 24.048 29.952H15.952C14.3747 29.9478 12.8633 29.3194 11.748 28.2041C10.6327 27.0888 10.0042 25.5773 10 24V15.904C10.0042 14.3267 10.6327 12.8153 11.748 11.7C12.8633 10.5847 14.3747 9.95623 15.952 9.952H24.048C25.6253 9.95623 27.1368 10.5847 28.2521 11.7C29.3674 12.8153 29.9958 14.3267 30 15.904V24Z" fill="#DEDFE8"/>
</svg>
