<svg width="9" height="14" viewBox="0 0 9 14" fill="none" xmlns="http://www.w3.org/2000/svg">
<path d="M0.717264 6.49256L6.77711 0.707679C6.91716 0.573718 7.10426 0.5 7.30381 0.5C7.50336 0.5 7.69045 0.573718 7.8305 0.707679L8.27692 1.13361C8.56725 1.41104 8.56725 1.86233 8.27692 2.13924L3.18825 6.99723L8.28246 11.8605C8.4225 11.9945 8.5 12.1728 8.5 12.3633C8.5 12.5538 8.4225 12.7324 8.28246 12.8664L7.83631 13.2923C7.69599 13.4263 7.50917 13.5 7.30962 13.5C7.11007 13.5 6.92297 13.4263 6.78293 13.2923L0.717264 7.50189C0.576665 7.36767 0.499724 7.18826 0.500001 6.99749C0.499724 6.80619 0.576665 6.62679 0.717264 6.49256Z" fill="#FF4248"/>
</svg>
