<svg width="45" height="27" viewBox="0 0 45 27" fill="none" xmlns="http://www.w3.org/2000/svg">
<path d="M37.8848 10.084C36.7457 12.2452 34.6743 16.7703 34.1008 18.0927C33.935 18.4731 33.383 18.4302 33.2777 18.0303L31.9436 12.959C31.6764 11.935 31.4365 11.1548 31.2258 10.6204C31.0152 10.086 30.6699 9.6237 30.1901 9.23361C29.7161 8.84741 29.0725 8.65431 28.2611 8.65041C27.4497 8.65431 26.8041 8.84936 26.332 9.23361C25.8522 9.6237 25.507 10.086 25.2963 10.6204C25.0837 11.1548 24.8458 11.935 24.5785 12.959L22.9713 18.5452C22.9148 18.7442 22.632 18.7442 22.5754 18.5452L20.9682 12.959C20.701 11.935 20.4611 11.1548 20.2504 10.6204C20.0398 10.086 19.6945 9.6237 19.2147 9.23361C18.7407 8.84741 18.0971 8.65431 17.2857 8.65041C16.4743 8.65431 15.8287 8.84936 15.3566 9.23361C14.8768 9.6237 14.5316 10.086 14.3209 10.6204C14.1083 11.1548 13.8704 11.935 13.6031 12.959L12.269 18.0303C12.1637 18.4321 11.6117 18.475 11.4459 18.0927C10.8725 16.7683 8.80105 12.2432 7.66196 10.084C5.88702 6.73698 0.850861 0 0.850861 0C0.850861 0 3.49377 4.8099 5.40525 9.9904C7.51568 15.7151 8.46947 23.5307 8.62551 24.1041C8.78155 24.6776 8.98245 25.173 9.22626 25.5923C9.47202 26.0098 9.7919 26.3335 10.1878 26.5617C10.5838 26.7899 11.087 26.905 11.6995 26.905C12.4563 26.905 13.0648 26.7119 13.5212 26.3277C13.9776 25.9434 14.2975 25.5085 14.4828 25.0248C14.6681 24.541 14.9139 23.7413 15.226 22.6276L17.2798 15.1085L19.3337 22.6276C19.6458 23.7413 19.8935 24.541 20.0768 25.0248C20.2602 25.5085 20.58 25.9434 21.0384 26.3277C21.4734 26.6944 22.0468 26.8836 22.7529 26.9011C22.7587 26.9011 22.7646 26.9011 22.7704 26.9011C22.7763 26.9011 22.7821 26.9011 22.788 26.9011C23.496 26.8836 24.0675 26.6944 24.5025 26.3277C24.9589 25.9434 25.2788 25.5085 25.4641 25.0248C25.6474 24.541 25.8951 23.7413 26.2072 22.6276L28.2611 15.1085L30.3149 22.6276C30.627 23.7413 30.8747 24.541 31.0581 25.0248C31.2414 25.5085 31.5613 25.9434 32.0197 26.3277C32.4761 26.7119 33.0827 26.905 33.8414 26.905C34.4539 26.905 34.959 26.7899 35.353 26.5617C35.749 26.3335 36.0689 26.0098 36.3146 25.5923C36.5604 25.1749 36.7613 24.6795 36.9154 24.1041C37.0714 23.5307 38.0252 15.7151 40.1356 9.9904C42.0432 4.8099 44.6861 0 44.6861 0C44.6861 0 39.65 6.73698 37.8848 10.084Z" fill="#FF5C00"/>
</svg>
