<svg width="9" height="14" viewBox="0 0 9 14" fill="none" xmlns="http://www.w3.org/2000/svg">
<path d="M8.28274 6.49256L2.22289 0.707679C2.08284 0.573718 1.89574 0.5 1.69619 0.5C1.49664 0.5 1.30955 0.573718 1.1695 0.707679L0.723076 1.13361C0.432745 1.41104 0.432745 1.86233 0.723076 2.13924L5.81175 6.99723L0.71754 11.8605C0.577495 11.9945 0.5 12.1728 0.5 12.3633C0.5 12.5538 0.577495 12.7324 0.71754 12.8664L1.16369 13.2923C1.30401 13.4263 1.49083 13.5 1.69038 13.5C1.88993 13.5 2.07703 13.4263 2.21707 13.2923L8.28274 7.50189C8.42334 7.36767 8.50028 7.18826 8.5 6.99749C8.50028 6.80619 8.42334 6.62679 8.28274 6.49256Z" fill="#FF4248"/>
</svg>
