<svg width="13" height="15" viewBox="0 0 13 15" fill="none" xmlns="http://www.w3.org/2000/svg">
<path d="M12.18 5.52188C11.91 5.59641 11.75 5.88389 11.82 6.17137C12.13 7.44907 12.02 8.81195 11.52 10.0151C10.67 12.0701 8.75 13.433 6.65 13.4968C4.54 13.5607 2.49 12.2404 1.56 10.2174C0.619997 8.18375 0.899997 5.639 2.26 3.90346C3.62 2.16792 5.82 1.4013 7.87 1.96562C8.14 2.04015 8.41 1.86979 8.48 1.58231C8.55 1.30547 8.38 1.00734 8.12 0.932811C5.69 0.272667 3.09 1.16706 1.49 3.22202C-0.110003 5.27698 -0.450003 8.27957 0.659997 10.6753C1.74 13.0496 4.02 14.5616 6.5 14.5616C6.56 14.5616 6.62 14.5616 6.68 14.5616C9.17 14.4871 11.43 12.8793 12.44 10.4517C13.03 9.0249 13.16 7.41713 12.79 5.91583C12.72 5.62835 12.44 5.45799 12.18 5.52188Z" fill="#8AC827"/>
<path d="M4.71998 6.12846C4.51998 5.91551 4.20999 5.91551 4.00999 6.12846C3.80999 6.34141 3.80999 6.67148 4.00999 6.88443L6.12999 9.1417C6.22999 9.24817 6.35999 9.30141 6.47999 9.30141C6.52999 9.30141 6.57999 9.29076 6.61999 9.28011C6.69999 9.25882 6.76999 9.21623 6.82999 9.1417L12.83 2.75321C13.03 2.54026 13.03 2.21019 12.83 1.99724C12.63 1.78429 12.32 1.78429 12.12 1.99724L6.48998 8.01306L4.71998 6.12846Z" fill="#8AC827"/>
</svg>
