<svg width="40" height="40" viewBox="0 0 40 40" fill="none" xmlns="http://www.w3.org/2000/svg">
<path d="M20 0C16.0444 0 12.1776 1.17298 8.8886 3.37061C5.59962 5.56823 3.03617 8.69182 1.52242 12.3463C0.00866232 16.0009 -0.3874 20.0222 0.384305 23.9018C1.15601 27.7814 3.06081 31.3451 5.85786 34.1421C8.65491 36.9392 12.2186 38.844 16.0982 39.6157C19.9778 40.3874 23.9991 39.9913 27.6537 38.4776C31.3082 36.9638 34.4318 34.4004 36.6294 31.1114C38.827 27.8224 40 23.9556 40 20C40 14.6957 37.8929 9.60859 34.1421 5.85786C30.3914 2.10713 25.3043 0 20 0ZM29.968 13.952C29.4911 14.6607 28.9083 15.292 28.24 15.824C28.159 15.8964 28.0943 15.9852 28.0502 16.0845C28.0061 16.1838 27.9835 16.2913 27.984 16.4C27.9786 17.8266 27.7185 19.2408 27.216 20.576C26.6901 21.9733 25.9148 23.2636 24.928 24.384C23.6045 25.8762 21.9016 26.9821 20 27.584C18.7504 27.9933 17.443 28.1986 16.128 28.192C14.0381 28.1889 11.9857 27.6372 10.176 26.592C10.1101 26.5553 10.0584 26.4974 10.0294 26.4277C10.0004 26.3581 9.99567 26.2807 10.016 26.208C10.0341 26.1376 10.0757 26.0755 10.1339 26.0318C10.1921 25.9882 10.2633 25.9657 10.336 25.968H10.832C12.4212 25.9627 13.9737 25.4897 15.296 24.608C14.5086 24.4826 13.7715 24.1409 13.1669 23.6211C12.5623 23.1013 12.114 22.4237 11.872 21.664C11.862 21.6357 11.8579 21.6056 11.8597 21.5756C11.8616 21.5457 11.8695 21.5163 11.883 21.4895C11.8964 21.4626 11.9151 21.4387 11.9379 21.4192C11.9608 21.3997 11.9873 21.385 12.016 21.376H12.128C12.3727 21.4004 12.6193 21.4004 12.864 21.376H12.944C12.2093 21.0474 11.5815 20.5194 11.1318 19.8519C10.6821 19.1845 10.4286 18.4043 10.4 17.6C10.4 17.5406 10.4236 17.4836 10.4656 17.4416C10.5076 17.3996 10.5646 17.376 10.624 17.376C10.6414 17.3675 10.6606 17.3631 10.68 17.3631C10.6994 17.3631 10.7186 17.3675 10.736 17.376C11.0449 17.5385 11.3727 17.6621 11.712 17.744C11.0329 17.072 10.5967 16.1931 10.4721 15.2458C10.3475 14.2985 10.5417 13.3368 11.024 12.512C11.0372 12.4853 11.0559 12.4616 11.079 12.4427C11.1021 12.4239 11.1289 12.4102 11.1577 12.4026C11.1866 12.395 11.2167 12.3937 11.2461 12.3988C11.2754 12.4039 11.3034 12.4152 11.328 12.432C12.2748 13.6108 13.4505 14.5856 14.7841 15.2978C16.1178 16.01 17.5818 16.4448 19.088 16.576C19.1304 16.576 19.1711 16.5591 19.2012 16.5291C19.2312 16.4991 19.248 16.4584 19.248 16.416C19.1795 15.8814 19.2121 15.3386 19.344 14.816C19.5088 14.1119 19.8556 13.4634 20.3499 12.9355C20.8441 12.4076 21.4683 12.0188 22.16 11.808C22.6002 11.6683 23.0583 11.5929 23.52 11.584C24.5714 11.581 25.5864 11.9688 26.368 12.672C26.4779 12.7588 26.6121 12.8092 26.752 12.816H26.88C27.6173 12.6326 28.3236 12.3415 28.976 11.952C29.0294 11.9219 29.0924 11.9134 29.1519 11.9283C29.2114 11.9432 29.263 11.9803 29.296 12.032C29.3209 12.0936 29.3209 12.1624 29.296 12.224C29.0758 12.9128 28.6851 13.5348 28.16 14.032C28.6348 13.9227 29.0962 13.7618 29.536 13.552C29.5643 13.542 29.5944 13.5379 29.6244 13.5397C29.6544 13.5416 29.6837 13.5495 29.7106 13.5629C29.7374 13.5764 29.7613 13.5951 29.7808 13.6179C29.8003 13.6408 29.815 13.6673 29.824 13.696C29.8395 13.7256 29.8475 13.7586 29.8475 13.792C29.8475 13.8254 29.8395 13.8583 29.824 13.888L29.968 13.952Z" fill="#DEDFE8"/>
</svg>
