<svg width="30" height="30" viewBox="0 0 30 30" fill="none" xmlns="http://www.w3.org/2000/svg">
<path d="M29.25 14.9905C29.25 7.27648 23.075 0.958979 15.4085 0.759479C15.266 0.740479 15.1425 0.740479 15 0.740479C14.8575 0.740479 14.734 0.740479 14.5915 0.759479C6.925 0.968479 0.75 7.28598 0.75 14.9905C0.75 22.714 6.925 29.022 14.5915 29.2215C13.0905 29.079 11.713 28.243 10.554 26.8465C11.713 28.243 13.0905 29.079 14.5915 29.2215C14.734 29.2405 14.8575 29.2405 15 29.2405C15.1425 29.2405 15.304 29.2405 15.4465 29.2215C23.094 29.003 29.25 22.7235 29.25 14.9905ZM10.554 3.15348C9.6705 4.21748 8.9105 5.60448 8.3405 7.21948C7.5615 6.86798 6.8395 6.44048 6.1745 5.93698C7.4 4.72098 8.8915 3.77098 10.554 3.15348ZM4.474 6.64948C4.683 6.82048 4.8825 6.98198 5.0915 7.12448C5.9275 7.77048 6.8775 8.31198 7.875 8.75848C7.419 10.402 7.1435 12.245 7.115 14.202H2.365C2.5265 11.523 3.524 9.09098 5.0915 7.12448C4.8825 6.98198 4.6735 6.82048 4.474 6.64948ZM1.5385 15.7885H2.365H7.115C7.0865 15.532 7.0865 15.266 7.0865 15C7.0865 15.266 7.0865 15.5415 7.115 15.7885C7.1435 17.755 7.419 19.5885 7.875 21.232C6.8775 21.6785 5.9465 22.2105 5.101 22.8755C3.5145 20.909 2.517 18.458 2.365 15.779H1.5385V15.7885ZM4.474 23.3505L5.4905 24.5665L4.474 23.3505ZM14.2115 27.5685C12.4255 27.0935 10.839 25.051 9.8415 22.182C9.319 22.3435 8.8155 22.543 8.3405 22.7805C8.9105 24.3955 9.6705 25.773 10.554 26.837C8.8915 26.2195 7.4 25.2695 6.165 24.0535C6.0795 24.1105 5.9845 24.177 5.899 24.234C5.9845 24.1675 6.07 24.1105 6.165 24.0535C6.83 23.5595 7.5615 23.132 8.331 22.79C8.2455 22.543 8.16 22.296 8.084 22.03C8.16 22.2865 8.2455 22.543 8.331 22.79C8.806 22.5525 9.3095 22.3435 9.832 22.1915C11.2095 21.7165 12.682 21.4315 14.202 21.365V27.5685H14.2115ZM14.2115 19.7785C12.53 19.845 10.8865 20.1395 9.3665 20.662C8.9865 19.1705 8.73 17.527 8.6825 15.7885H14.2115V19.7785ZM14.2115 14.202H8.6825C8.73 12.4635 8.9865 10.801 9.3665 9.32848C10.8865 9.85098 12.53 10.155 14.2115 10.212V14.202ZM14.2115 2.44098V8.63498C12.6915 8.56848 11.219 8.30248 9.8415 7.82748C9.794 7.94148 9.756 8.06498 9.718 8.18848C9.756 8.06498 9.8035 7.94148 9.8415 7.82748C10.839 4.93948 12.416 2.89698 14.2115 2.44098C14.2875 2.41248 14.373 2.39348 14.449 2.38398C14.3635 2.39348 14.2875 2.41248 14.2115 2.44098ZM19.446 26.837C20.3295 25.773 21.0895 24.3955 21.6595 22.7805C21.707 22.657 21.745 22.5335 21.783 22.41C21.745 22.5335 21.6975 22.657 21.6595 22.7805C22.4385 23.132 23.1605 23.5595 23.8255 24.044C22.6 25.2695 21.1085 26.2195 19.446 26.837ZM25.526 23.3505C25.4975 23.3315 25.4785 23.303 25.45 23.284C25.4785 23.3125 25.507 23.3315 25.526 23.3505ZM24.899 22.8755C24.063 22.2105 23.1225 21.669 22.125 21.232C22.087 21.384 22.049 21.536 22.011 21.6785C22.049 21.5265 22.087 21.384 22.125 21.232C21.65 21.0135 21.1465 20.8235 20.6335 20.662C19.1135 20.1395 17.47 19.8355 15.7885 19.7785V15.7885H21.3175C21.27 17.527 21.0135 19.18 20.6335 20.662C21.137 20.8235 21.65 21.0135 22.125 21.232C22.581 19.5885 22.8565 17.7455 22.885 15.7885H27.635C27.4735 18.458 26.476 20.9185 24.899 22.8755ZM15.7885 14.202V10.212C17.47 10.1455 19.1135 9.85098 20.6335 9.32848C21.0135 10.801 21.27 12.4635 21.3175 14.202H15.7885ZM27.635 14.202H22.885C22.8565 12.2355 22.581 10.402 22.125 8.75848C23.1225 8.31198 24.0725 7.77998 24.9085 7.12448C26.476 9.09098 27.4735 11.523 27.635 14.202ZM23.835 5.93698C24.0725 5.79448 24.291 5.62348 24.519 5.43348C24.291 5.62348 24.0725 5.79448 23.835 5.93698C23.17 6.44048 22.4385 6.86798 21.669 7.21948C21.099 5.60448 20.339 4.20798 19.4555 3.15348C21.1085 3.77098 22.6 4.72098 23.835 5.93698ZM20.1585 7.81798C18.781 8.29298 17.3085 8.55898 15.7885 8.62548V2.44098C17.584 2.89698 19.161 4.93948 20.1585 7.81798ZM15.7885 2.35548C15.7125 2.34598 15.627 2.34598 15.551 2.34598C15.6365 2.34598 15.7125 2.34598 15.7885 2.35548ZM15 27.6635C15.019 27.6635 15.0475 27.6635 15.0665 27.6635C15.0475 27.654 15.019 27.6635 15 27.6635ZM15.7885 27.5685V21.365C17.3085 21.4315 18.781 21.7165 20.1585 22.1915C19.161 25.051 17.584 27.0935 15.7885 27.5685C15.665 27.597 15.532 27.6255 15.399 27.635C15.532 27.616 15.665 27.597 15.7885 27.5685Z" fill="black"/>
</svg>
