<svg width="38" height="34" viewBox="0 0 38 34" fill="none" xmlns="http://www.w3.org/2000/svg">
<path d="M35.625 19.375V17C35.625 7.8325 28.1675 0.375 19 0.375C9.8325 0.375 2.375 7.8325 2.375 17V19.375C1.064 19.375 0 20.439 0 21.75V31.25C0 32.561 1.064 33.625 2.375 33.625H7.125C8.436 33.625 9.5 32.561 9.5 31.25V21.75C9.5 20.439 8.436 19.375 7.125 19.375H4.75V17C4.75 9.1435 11.1435 2.75 19 2.75C26.8565 2.75 33.25 9.1435 33.25 17V19.375H30.875C29.564 19.375 28.5 20.439 28.5 21.75V31.25C28.5 32.561 29.564 33.625 30.875 33.625H35.625C36.936 33.625 38 32.561 38 31.25V21.75C38 20.439 36.936 19.375 35.625 19.375ZM7.125 21.75V31.25H2.375V21.75H7.125ZM35.625 32.4375V31.25H30.875V21.75H35.625V31.25V32.4375Z" fill="black"/>
</svg>
