<svg width="27" height="34" viewBox="0 0 27 34" fill="none" xmlns="http://www.w3.org/2000/svg">
<path d="M13.4615 33.2499C13.3855 33.2499 13.3095 33.2404 13.2335 33.2309C13.1005 33.2024 0 30.4949 0 15.7224V5.93743C0 5.44343 0.304 5.00643 0.76 4.82593L13.034 0.0759336C13.3095 -0.0285664 13.6135 -0.0285664 13.889 0.0759336L26.163 4.82593C26.619 5.00643 26.923 5.44343 26.923 5.93743V13.0624C26.923 13.7179 26.391 14.2499 25.7355 14.2499C25.08 14.2499 24.548 13.7179 24.548 13.0624V6.75443L13.4615 2.46043L2.375 6.75443V15.7224C2.375 27.7494 11.894 30.4759 13.4805 30.8559C14.1265 30.7229 14.7535 31.1409 14.877 31.7869C15.01 32.4329 14.592 33.0599 13.946 33.1834L13.6515 33.2404C13.585 33.2404 13.5185 33.2499 13.4615 33.2499Z" fill="black"/>
</svg>
