<svg xmlns="http://www.w3.org/2000/svg" width="14" height="10" fill="#fff" viewBox="0 0 10 6"><path fill="#242A31" d="M0.984838 4.73483L4.73484 0.98483C4.80516 0.914507 4.90054 0.875 5 0.875C5.09945 0.875 5.19483 0.914507 5.26516 0.98483L9.01516 4.73483C9.0676 4.78727 9.10332 4.85409 9.11779 4.92683C9.13226 4.99958 9.12484 5.07498 9.09646 5.1435C9.06807 5.21202 9.02001 5.27059 8.95834 5.31179C8.89667 5.353 8.82417 5.37499 8.75 5.37499H1.25C1.17583 5.37499 1.10333 5.353 1.04166 5.31179C0.979988 5.27059 0.931924 5.21202 0.903541 5.1435C0.875158 5.07498 0.867732 4.99958 0.882203 4.92683C0.896674 4.85409 0.932392 4.78727 0.984838 4.73483Z"/></svg>