<?xml version="1.0" standalone="no"?>
<!DOCTYPE svg PUBLIC "-//W3C//DTD SVG 20010904//EN"
 "http://www.w3.org/TR/2001/REC-SVG-20010904/DTD/svg10.dtd">
<svg version="1.0" xmlns="http://www.w3.org/2000/svg"
 width="1526.000000pt" height="762.000000pt" viewBox="0 0 1526.000000 762.000000"
 preserveAspectRatio="xMidYMid meet">

<g transform="translate(0.000000,762.000000) scale(0.100000,-0.100000)"
fill="#000000" stroke="none">
<path d="M0 3810 l0 -3810 7630 0 7630 0 0 3810 0 3810 -7630 0 -7630 0 0
-3810z m9348 153 c44 -62 142 -119 174 -102 12 7 18 6 18 -2 0 -7 12 -10 30
-7 34 5 34 5 19 -24 -24 -44 -133 -71 -195 -48 -21 8 -30 8 -36 -2 -7 -10 -8
-9 -6 2 3 14 -2 22 -53 79 -27 29 -28 115 -2 164 l17 32 6 -31 c4 -18 17 -45
28 -61z m72 27 c0 -5 -5 -10 -11 -10 -5 0 -7 5 -4 10 3 6 8 10 11 10 2 0 4 -4
4 -10z m-20 -30 c0 -5 -5 -10 -11 -10 -5 0 -7 5 -4 10 3 6 8 10 11 10 2 0 4
-4 4 -10z"/>
</g>
</svg>
