<svg xmlns="http://www.w3.org/2000/svg" xmlns:xlink="http://www.w3.org/1999/xlink" id="Capa_1" x="0" y="0" version="1.1" viewBox="0 0 58 58" style="enable-background:new 0 0 58 58" xml:space="preserve"><g><path style="fill:#dae7ef" d="M39.216,40.149c-0.212-2.626-0.967-5.153-1.917-7.611c-1.163-3.009-0.925-7.264,0.799-9.495 c0.878-1.136,1.264-2.591,1.257-4.027c-0.049-9.303-5.103-11.523-6.512-11.961c-0.298-0.093-0.55-0.285-0.705-0.557 c-0.318-0.554-0.501-1.301-0.606-2.012c-0.096-0.651-0.664-1.112-1.32-1.057C29.824,3.462,29.419,3.48,29,3.48 s-0.824-0.018-1.212-0.051c-0.656-0.055-1.224,0.406-1.32,1.057c-0.105,0.711-0.288,1.458-0.606,2.012 c-0.155,0.271-0.407,0.464-0.705,0.557c-1.409,0.438-6.464,2.659-6.512,11.961c-0.007,1.436,0.378,2.891,1.257,4.027 c1.725,2.231,1.962,6.486,0.799,9.495c-0.95,2.457-1.704,4.985-1.917,7.611c-0.35,4.324-0.674,10.335-0.226,14.37 c0,1.922,2.814,3.48,9.862,3.48s11.022-1.558,11.022-3.48C39.89,50.485,39.566,44.474,39.216,40.149z"/><path style="fill:#3dabef" d="M18.664,18.548c-0.004,0.159-0.018,0.305-0.019,0.468c-0.008,1.436,0.379,2.891,1.257,4.027 c1.725,2.231,1.962,6.486,0.799,9.495c-0.95,2.457-1.704,4.985-1.917,7.611c-0.012,0.147-0.023,0.31-0.035,0.461 C21.373,41.319,24.991,41.76,29,41.76s7.627-0.441,10.251-1.149c-0.012-0.151-0.023-0.314-0.035-0.461 c-0.212-2.626-0.967-5.154-1.917-7.611c-1.163-3.009-0.926-7.264,0.799-9.495c0.878-1.136,1.264-2.591,1.257-4.027 c-0.001-0.164-0.015-0.309-0.019-0.468C36.706,19.269,33.052,19.72,29,19.72S21.293,19.269,18.664,18.548z"/><path style="fill:#fff" d="M26.742,54.36c-2.038,0-3.504-0.469-4.363-1.396c-0.745-0.804-0.772-1.679-0.759-1.964v-1.12 c0-0.553,0.447-1,1-1s1,0.447,1,1l-0.007,1.264l0,0c0.003,0,0.011,0.244,0.269,0.499c0.306,0.301,1.152,0.801,3.34,0.708 c0.563-0.035,1.018,0.408,1.038,0.96c0.021,0.552-0.408,1.017-0.96,1.038C27.109,54.356,26.923,54.36,26.742,54.36z"/><path style="fill:#fff" d="M22.619,47.399c-0.553,0-1-0.447-1-1v-1.17c0-0.553,0.447-1,1-1s1,0.447,1,1v1.17 C23.619,46.952,23.172,47.399,22.619,47.399z"/><path style="fill:#fff" d="M23.781,16.08c-0.059,0-0.117-0.005-0.178-0.016c-0.543-0.098-0.905-0.617-0.808-1.161 c0.662-3.697,3.893-5.298,4.029-5.364c0.502-0.238,1.096-0.03,1.336,0.465c0.239,0.496,0.033,1.093-0.462,1.334 c-0.049,0.024-2.458,1.259-2.935,3.919C24.677,15.74,24.256,16.08,23.781,16.08z"/><path style="fill:#003879" d="M29,0c-1.794,0-3.248,0.485-3.248,1.083v3.248c0,0.598,1.454,1.083,3.248,1.083 s3.248-0.485,3.248-1.083V1.083C32.248,0.485,30.794,0,29,0z"/><path style="fill:#1a69b7" d="M28.848,2.83h-0.813c-0.276,0-0.5-0.224-0.5-0.5s0.224-0.5,0.5-0.5h0.813c0.276,0,0.5,0.224,0.5,0.5 S29.124,2.83,28.848,2.83z"/></g></svg>