<svg width="55" height="55" viewBox="0 0 55 55" fill="none" xmlns="http://www.w3.org/2000/svg">
<rect width="55" height="55" rx="15" fill="#F2F4FF"/>
<g clip-path="url(#clip0_27_121)">
<path d="M36.875 20.8979V21.602C36.875 23.4083 38.2969 23.3323 38.4375 23.3323C38.5896 23.3323 40 23.4187 40 21.602V20.8979C40 19.0916 38.5781 19.1677 38.4375 19.1677C38.2854 19.1677 36.875 19.0812 36.875 20.8979ZM39.0885 20.7833V21.7062C39.0885 22.4385 38.8604 22.6854 38.4479 22.6854C38.0354 22.6854 37.7969 22.4385 37.7969 21.7062V20.7843C37.7969 20.0708 38.0365 19.8239 38.4375 19.8239C38.85 19.8135 39.0885 20.0708 39.0885 20.7843V20.7833ZM36.875 28.1895V28.8937C36.875 30.7 38.2969 30.6239 38.4375 30.6239C38.5896 30.6239 40 30.7104 40 28.8937V28.1895C40 26.3833 38.5781 26.4593 38.4375 26.4593C38.2854 26.4593 36.875 26.3729 36.875 28.1895ZM39.0885 28.075V28.9979C39.0885 29.7302 38.8604 29.977 38.4479 29.977C38.0354 29.977 37.7969 29.7302 37.7969 28.9979V28.076C37.7969 27.3625 38.0365 27.1156 38.4375 27.1156C38.85 27.1052 39.0885 27.3625 39.0885 28.076V28.075ZM36.875 35.4812V36.1854C36.875 37.9916 38.2969 37.9156 38.4375 37.9156C38.5896 37.9156 40 38.002 40 36.1854V35.4812C40 33.675 38.5781 33.751 38.4375 33.751C38.2854 33.751 36.875 33.6645 36.875 35.4812ZM39.0885 35.3666V36.2895C39.0885 37.0218 38.8604 37.2687 38.4479 37.2687C38.0354 37.2687 37.7969 37.0218 37.7969 36.2895V35.3677C37.7969 34.6541 38.0365 34.4073 38.4375 34.4073C38.85 34.3968 39.0885 34.6541 39.0885 35.3677V35.3666ZM32.7083 25.0645V25.7687C32.7083 27.575 34.1302 27.4989 34.2708 27.4989C34.4229 27.4989 35.8333 27.5854 35.8333 25.7687V25.0645C35.8333 23.2583 34.4115 23.3343 34.2708 23.3343C34.1187 23.3343 32.7083 23.2479 32.7083 25.0645ZM34.9219 24.95V25.8729C34.9219 26.6052 34.6938 26.852 34.2812 26.852C33.8687 26.852 33.6302 26.6052 33.6302 25.8729V24.951C33.6302 24.2375 33.8698 23.9906 34.2708 23.9906C34.6833 23.9802 34.9219 24.2375 34.9219 24.951V24.95ZM32.7083 16.6562V17.3302L33.75 17.0823V20.2083H34.7917V16.0416M32.7083 31.2395V31.9135L33.75 31.6656V34.7916H34.7927V30.625M31.6667 36.875V40H15V36.875C15 34.1041 20.5521 32.7083 23.3333 32.7083C26.1146 32.7083 31.6667 34.1041 31.6667 36.875Z" fill="#002A3B"/>
<path d="M23.3333 31.6667C25.6345 31.6667 27.5 29.8012 27.5 27.5C27.5 25.1989 25.6345 23.3334 23.3333 23.3334C21.0321 23.3334 19.1666 25.1989 19.1666 27.5C19.1666 29.8012 21.0321 31.6667 23.3333 31.6667Z" fill="#002A3B"/>
<path d="M33.6302 39.5344C33.6302 38.8209 33.8698 38.574 34.2709 38.574C34.6834 38.5636 34.9219 38.8209 34.9219 39.5344V40.0001H35.8334V39.648C35.8334 37.8417 34.4115 37.9178 34.2709 37.9178C34.1188 37.9178 32.7084 37.8313 32.7084 39.648V40.0001H33.6302V39.5344Z" fill="#002A3B"/>
</g>
<defs>
<clipPath id="clip0_27_121">
<rect width="25" height="25" fill="white" transform="translate(15 15)"/>
</clipPath>
</defs>
</svg>
