<svg width="55" height="55" viewBox="0 0 55 55" fill="none" xmlns="http://www.w3.org/2000/svg">
<rect width="55" height="55" rx="15" fill="#F2F4FF"/>
<g clip-path="url(#clip0_27_127)">
<path d="M26.9166 17.3334H29.0833V18.4167H26.9166V17.3334Z" fill="#002A3B"/>
<path d="M24.75 18.4167C25.3483 18.4167 25.8333 17.9316 25.8333 17.3333C25.8333 16.735 25.3483 16.25 24.75 16.25C24.1517 16.25 23.6666 16.735 23.6666 17.3333C23.6666 17.9316 24.1517 18.4167 24.75 18.4167Z" fill="#002A3B"/>
<path d="M31.25 18.4167C31.8483 18.4167 32.3333 17.9316 32.3333 17.3333C32.3333 16.735 31.8483 16.25 31.25 16.25C30.6517 16.25 30.1666 16.735 30.1666 17.3333C30.1666 17.9316 30.6517 18.4167 31.25 18.4167Z" fill="#002A3B"/>
<path d="M34.5 23.8333H29.0833V21.6667L32.3333 21.6558C33.1934 21.6558 34.0184 21.3149 34.6276 20.7078C35.2368 20.1006 35.5805 19.2767 35.5833 18.4167V16.25C35.5808 15.3888 35.2375 14.5637 34.6286 13.9547C34.0197 13.3458 33.1945 13.0026 32.3333 13H23.6667C22.8055 13.0026 21.9803 13.3458 21.3714 13.9547C20.7625 14.5637 20.4192 15.3888 20.4167 16.25V18.4167C20.4192 19.2778 20.7625 20.103 21.3714 20.7119C21.9803 21.3209 22.8055 21.6641 23.6667 21.6667H26.9167V23.8333H21.5C20.6388 23.8359 19.8137 24.1791 19.2047 24.7881C18.5958 25.397 18.2526 26.2222 18.25 27.0833V35.75C18.2526 36.6112 18.5958 37.4363 19.2047 38.0453C19.8137 38.6542 20.6388 38.9974 21.5 39H34.5C35.3612 38.9974 36.1863 38.6542 36.7953 38.0453C37.4042 37.4363 37.7474 36.6112 37.75 35.75V27.0833C37.7474 26.2222 37.4042 25.397 36.7953 24.7881C36.1863 24.1791 35.3612 23.8359 34.5 23.8333ZM23.6667 19.5C23.3796 19.4991 23.1046 19.3847 22.9016 19.1818C22.6986 18.9788 22.5842 18.7037 22.5833 18.4167V16.25C22.5842 15.9629 22.6986 15.6879 22.9016 15.4849C23.1046 15.2819 23.3796 15.1675 23.6667 15.1667H32.3225C32.6107 15.1672 32.887 15.2812 33.0918 15.4839C33.2965 15.6867 33.4133 15.9619 33.4167 16.25V18.4167C33.4133 18.7048 33.2965 18.98 33.0918 19.1827C32.887 19.3855 32.6107 19.4995 32.3225 19.5H23.6667ZM28.4713 34.7447L28 35.2083L27.5287 34.7403C25.855 33.0861 24.75 31.9952 24.75 30.6562C24.7375 30.4104 24.774 30.1647 24.8574 29.9332C24.9408 29.7017 25.0694 29.4891 25.2358 29.3079C25.4021 29.1266 25.6029 28.9802 25.8264 28.8773C26.0499 28.7744 26.2916 28.7169 26.5375 28.7083C26.8212 28.7136 27.1001 28.7829 27.3534 28.911C27.6066 29.0391 27.8277 29.2228 28 29.4482C28.1724 29.2228 28.3934 29.0391 28.6466 28.911C28.8999 28.7829 29.1788 28.7136 29.4625 28.7083C29.7084 28.7169 29.9501 28.7744 30.1736 28.8773C30.3971 28.9802 30.5979 29.1266 30.7642 29.3079C30.9306 29.4891 31.0592 29.7017 31.1426 29.9332C31.226 30.1647 31.2625 30.4104 31.25 30.6562C31.25 31.9952 30.145 33.0861 28.4713 34.7447Z" fill="#002A3B"/>
</g>
<defs>
<clipPath id="clip0_27_127">
<rect width="26" height="26" fill="white" transform="translate(15 13)"/>
</clipPath>
</defs>
</svg>
