<svg width="39" height="30" viewBox="0 0 39 30" fill="none" xmlns="http://www.w3.org/2000/svg">
<path d="M26 6C26 7.5913 25.3152 9.11742 24.0962 10.2426C22.8772 11.3679 21.2239 12 19.5 12C17.7761 12 16.1228 11.3679 14.9038 10.2426C13.6848 9.11742 13 7.5913 13 6C13 4.4087 13.6848 2.88258 14.9038 1.75736C16.1228 0.632141 17.7761 0 19.5 0C21.2239 0 22.8772 0.632141 24.0962 1.75736C25.3152 2.88258 26 4.4087 26 6ZM36.8333 10C36.8333 11.0609 36.3768 12.0783 35.5641 12.8284C34.7515 13.5786 33.6493 14 32.5 14C31.3507 14 30.2485 13.5786 29.4359 12.8284C28.6232 12.0783 28.1667 11.0609 28.1667 10C28.1667 8.93913 28.6232 7.92172 29.4359 7.17157C30.2485 6.42143 31.3507 6 32.5 6C33.6493 6 34.7515 6.42143 35.5641 7.17157C36.3768 7.92172 36.8333 8.93913 36.8333 10ZM28.1667 24C28.1667 21.8783 27.2536 19.8434 25.6283 18.3431C24.0029 16.8429 21.7985 16 19.5 16C17.2015 16 14.9971 16.8429 13.3717 18.3431C11.7464 19.8434 10.8333 21.8783 10.8333 24V30H28.1667V24ZM10.8333 10C10.8333 11.0609 10.3768 12.0783 9.56413 12.8284C8.75147 13.5786 7.64927 14 6.5 14C5.35073 14 4.24853 13.5786 3.43587 12.8284C2.62321 12.0783 2.16667 11.0609 2.16667 10C2.16667 8.93913 2.62321 7.92172 3.43587 7.17157C4.24853 6.42143 5.35073 6 6.5 6C7.64927 6 8.75147 6.42143 9.56413 7.17157C10.3768 7.92172 10.8333 8.93913 10.8333 10ZM32.5 30V24C32.5031 21.9666 31.9438 19.9661 30.875 18.188C31.8356 17.9611 32.8396 17.9397 33.8105 18.1254C34.7814 18.3112 35.6936 18.6992 36.4773 19.2598C37.2611 19.8205 37.8958 20.5389 38.3329 21.3604C38.7701 22.1819 38.9983 23.0847 39 24V30H32.5ZM8.125 18.188C7.05629 19.9661 6.49696 21.9666 6.5 24V30H5.75727e-07V24C-0.000417014 23.0841 0.226337 22.1802 0.662885 21.3577C1.09943 20.5352 1.73419 19.8159 2.5185 19.2548C3.30281 18.6938 4.21586 18.306 5.18767 18.121C6.15948 17.9361 7.16426 17.959 8.125 18.188Z" fill="#0FA958"/>
</svg>
